<svg width="44" height="45" viewBox="0 0 44 45" fill="none" xmlns="http://www.w3.org/2000/svg">
<g filter="url(#filter0_d_521_1699)">
<path d="M18.2486 2.24593C19.7265 -0.748648 23.9967 -0.748648 25.4746 2.24593L29.1089 9.60986C29.6958 10.799 30.8302 11.6232 32.1425 11.8139L40.2691 12.9948C43.5738 13.475 44.8934 17.5362 42.5021 19.8671L36.6216 25.5991C35.672 26.5248 35.2387 27.8584 35.4629 29.1654L36.8511 37.2591C37.4156 40.5505 33.9609 43.0604 31.0051 41.5065L23.7365 37.6851C22.5627 37.068 21.1605 37.068 19.9867 37.6851L12.7181 41.5065C9.76226 43.0604 6.30762 40.5505 6.87213 37.2591L8.26031 29.1654C8.48448 27.8584 8.05116 26.5248 7.10157 25.5991L1.22112 19.8671C-1.17019 17.5362 0.149365 13.475 3.45408 12.9948L11.5807 11.8139C12.893 11.6232 14.0274 10.799 14.6143 9.60986L18.2486 2.24593Z" fill="url(#paint0_linear_521_1699)"/>
</g>
<defs>
<filter id="filter0_d_521_1699" x="0" y="0" width="43.7232" height="45" filterUnits="userSpaceOnUse" color-interpolation-filters="sRGB">
<feFlood flood-opacity="0" result="BackgroundImageFix"/>
<feColorMatrix in="SourceAlpha" type="matrix" values="0 0 0 0 0 0 0 0 0 0 0 0 0 0 0 0 0 0 127 0" result="hardAlpha"/>
<feOffset dy="3"/>
<feComposite in2="hardAlpha" operator="out"/>
<feColorMatrix type="matrix" values="0 0 0 0 1 0 0 0 0 0.392 0 0 0 0 0.2 0 0 0 1 0"/>
<feBlend mode="normal" in2="BackgroundImageFix" result="effect1_dropShadow_521_1699"/>
<feBlend mode="normal" in="SourceGraphic" in2="effect1_dropShadow_521_1699" result="shape"/>
</filter>
<linearGradient id="paint0_linear_521_1699" x1="21.8616" y1="-5.0748" x2="21.8616" y2="50.6242" gradientUnits="userSpaceOnUse">
<stop offset="0.25" stop-color="#FFEE37"/>
<stop offset="1" stop-color="#F78A3B"/>
</linearGradient>
</defs>
</svg>
